<?xml version="1.0" encoding="UTF-8"?>
<svg version="1.1" xmlns="http://www.w3.org/2000/svg" width="512" height="512">
<path d="M0 0 C15.20826876 13.32516676 27.04948564 31.21487057 30.0625 51.5625 C30.17207031 52.2740625 30.28164062 52.985625 30.39453125 53.71875 C30.69574174 55.99991741 30.89857014 58.26748201 31.0625 60.5625 C31.12824219 61.35914062 31.19398438 62.15578125 31.26171875 62.9765625 C32.04304019 80.8122451 23.91454128 98.79799626 16.765625 114.734375 C11.29259171 126.62361098 11.29259171 126.62361098 11.0625 139.5625 C19.20836028 135.61346127 25.66502415 130.95997585 32.0625 124.5625 C32.68898437 123.93601563 33.31546875 123.30953125 33.9609375 122.6640625 C49.57395345 105.92069246 58.26262619 82.29398252 59.80078125 59.734375 C60.3148447 55.4684156 62.10826492 53.3576959 65.3125 50.6875 C69.02619801 49.16825991 71.21904948 49.51428622 75.0625 50.5625 C77.3806362 52.45361111 78.73164015 53.90078031 80.0625 56.5625 C82.92345478 85.45345323 66.62266568 115.87411806 48.9375 137.5 C37.07950378 150.71603489 22.62600391 159.00982645 5.0625 161.5625 C3.39399041 161.88648245 1.72671869 162.21715229 0.0625 162.5625 C1.2484375 162.72105469 2.434375 162.87960938 3.65625 163.04296875 C33.21767349 167.20455821 58.93371211 179.16051215 77.5625 203.25 C81.88098273 209.10921071 85.5491271 215.19098131 89.0625 221.5625 C89.57296875 220.64210937 90.0834375 219.72171875 90.609375 218.7734375 C106.02043988 191.66325121 128.69040305 173.96913149 158.734375 165.53125 C161.50300258 164.82934442 164.27083197 164.16524651 167.0625 163.5625 C163.30466661 161.10653773 159.71216786 159.71143679 155.4375 158.375 C133.90600564 150.7941197 119.7934443 130.92331261 110.25 111.125 C102.69879063 94.85496919 95.79777299 74.76855224 98.0625 56.5625 C99.26382315 53.44346834 99.89502177 52.67545043 102.75 50.75 C106.76612431 49.31025732 108.96812087 49.42517247 113.0625 50.5625 C115.93192113 52.82783247 116.90157612 54.07972837 118.0625 57.5625 C118.27166354 59.40976612 118.47749469 61.25754858 118.65722656 63.10791016 C121.26008888 89.45751406 131.26010626 114.81305012 151.33203125 132.5703125 C155.03610683 135.50241057 158.41622685 137.40093171 163.0625 138.5625 C165.95369923 130.79296152 164.52438739 125.72142611 161.27490234 118.28442383 C160.99491394 117.67611725 160.71492554 117.06781067 160.42645264 116.44107056 C158.9629197 113.25877818 157.58726961 110.03828585 156.1953125 106.82421875 C155.91958405 106.19480881 155.64385559 105.56539886 155.35977173 104.91691589 C145.12822779 81.46820157 141.64826296 59.70566338 150.66015625 35.08984375 C159.41214677 13.07578403 176.52917927 -3.83577521 198.1875 -13.25 C200.13651482 -14.00372057 202.09468381 -14.73432655 204.0625 -15.4375 C204.908125 -15.74558594 205.75375 -16.05367187 206.625 -16.37109375 C224.9527128 -22.21025835 245.08194472 -19.682131 262.22900391 -11.41210938 C279.5881948 -2.18469392 294.50047021 13.22398251 305.0625 29.5625 C305.69800781 30.53703125 306.33351563 31.5115625 306.98828125 32.515625 C315.20915976 45.47747617 321.779582 59.15846234 327.0625 73.5625 C327.30709961 74.22378906 327.55169922 74.88507813 327.80371094 75.56640625 C338.22439606 104.13182139 344.1254995 135.23655151 344.265625 165.66015625 C344.27263931 166.68439194 344.27965363 167.70862762 344.28688049 168.76390076 C344.30428709 172.05097909 344.31073279 175.33787727 344.3125 178.625 C344.31351212 180.30964355 344.31351212 180.30964355 344.31454468 182.02832031 C344.29888101 198.4192527 343.88254739 214.37955489 341.0625 230.5625 C340.89089355 231.61083008 340.71928711 232.65916016 340.54248047 233.73925781 C332.64767741 281.41850633 313.76316857 334.18662575 273.25 363.9375 C249.33658089 380.70599489 221.66319512 380.79680146 193.83984375 376.0078125 C176.94951986 372.40276313 162.85000852 362.69008986 153.0625 348.5625 C142.59268037 330.727284 141.06856577 314.9269919 146.08056641 295.00976562 C149.54819297 282.83599956 154.09765558 270.96028558 158.42626953 259.07250977 C162.23511599 248.60023893 166.0009291 238.10078839 169.4375 227.5 C169.82615234 226.3562793 169.82615234 226.3562793 170.22265625 225.18945312 C172.71398428 217.47160888 172.40773515 211.20330519 170.5625 203.25 C169.20734803 196.90050862 168.69915046 191.03550485 169.0625 184.5625 C153.09873569 188.62671417 139.45659775 194.36714055 127.0625 205.5625 C126.30582031 206.22636719 125.54914063 206.89023438 124.76953125 207.57421875 C109.58862551 221.70996747 100.70214354 242.48913004 99.78911209 263.12353706 C99.65464338 268.28940186 99.68238574 273.45427219 99.70947266 278.62133789 C99.70864 280.59408672 99.70641808 282.56683538 99.70292664 284.5395813 C99.69801131 288.75625135 99.70200442 292.97278143 99.71294022 297.18943977 C99.72940303 303.85872685 99.72078997 310.52784143 99.70809937 317.1971283 C99.67808473 334.95029645 99.67948968 352.70343138 99.69835222 370.45661205 C99.71067889 382.14861473 99.7088548 393.8404202 99.67996442 405.53240007 C99.66473205 412.16186531 99.67220768 418.79079441 99.69667459 425.42022622 C99.70673569 429.53743091 99.69606665 433.65438867 99.67955971 437.77156448 C99.6761053 439.67994166 99.68121686 441.58835648 99.69552803 443.49668312 C99.71385937 446.10215246 99.70148579 448.7057555 99.68154907 451.31117249 C99.69426869 452.06554425 99.70698831 452.81991601 99.72009337 453.59714752 C99.65613716 457.47616523 99.0888654 460.0104255 96.71130943 463.01570797 C93.66165607 465.94790565 92.25652611 466.5625 88.0625 466.5625 C84.60830384 465.59853828 82.31117648 464.3733456 80.0625 461.5625 C78.84075174 457.89725523 78.91909946 454.52609003 78.92446899 450.7098999 C78.92164771 449.90120964 78.91882643 449.09251938 78.91591966 448.25932336 C78.90756311 445.5397346 78.90623446 442.8201865 78.90478516 440.10058594 C78.9001174 438.15406174 78.8949739 436.20753863 78.88938904 434.26101685 C78.87809859 430.06221366 78.86966867 425.86341762 78.86326981 421.66460419 C78.85258758 415.0148403 78.83233907 408.36512727 78.81015015 401.71539307 C78.74824325 382.80312447 78.69431154 363.89085802 78.66113281 344.97851562 C78.64273683 334.5384307 78.61373331 324.09843023 78.5731281 313.65840745 C78.552131 308.13756347 78.53661132 302.61682563 78.53432083 297.09593964 C78.53215954 291.89203843 78.51614041 286.68835767 78.48993111 281.48452377 C78.48279107 279.5847915 78.4806111 277.68503237 78.48403358 275.78528976 C78.52418963 249.23435547 72.13100565 226.95474938 53.0625 207.5625 C52.37542969 206.86253906 51.68835938 206.16257813 50.98046875 205.44140625 C38.94144265 193.98311239 23.21388234 187.6256932 7.0625 184.5625 C7.09730469 185.11035156 7.13210937 185.65820312 7.16796875 186.22265625 C7.46328134 194.87109639 5.93599767 203.69091968 3.3046875 211.9375 C2.91664722 216.14335589 4.34422589 219.77188475 5.625 223.75 C5.86541016 224.53052734 6.10582031 225.31105469 6.35351562 226.11523438 C7.23278637 228.9390888 8.14444207 231.75100105 9.0625 234.5625 C9.27161011 235.20477539 9.48072021 235.84705078 9.69616699 236.50878906 C12.44640947 244.93381733 15.29326491 253.31428587 18.3515625 261.6328125 C18.76283638 262.75279381 18.76283638 262.75279381 19.18241882 263.895401 C20.29517094 266.91999597 21.41014455 269.94368312 22.53613281 272.96337891 C30.88659176 295.39981964 37.35815473 316.54198372 27.77734375 339.6640625 C20.2822313 355.82344143 7.73099378 367.33783433 -8.9375 373.5625 C-18.29567222 376.4265302 -28.15554241 378.26499521 -37.9375 378.5625 C-38.70545898 378.59359863 -39.47341797 378.62469727 -40.26464844 378.65673828 C-67.85779338 379.67472787 -88.87026579 372.25877159 -109.24609375 353.5625 C-148.68371149 316.26306636 -165.80589782 254.61102247 -168.05137634 201.88876343 C-168.11653349 199.1625581 -168.15361271 196.43782935 -168.17578125 193.7109375 C-168.1855751 192.70584137 -168.19536896 191.70074524 -168.20545959 190.66519165 C-168.45839542 157.93526447 -166.36932155 127.35052395 -157.9375 95.5625 C-157.73012207 94.75973633 -157.52274414 93.95697266 -157.30908203 93.12988281 C-146.78389767 52.79940952 -124.57981791 11.49075201 -87.87109375 -10.25390625 C-59.03188373 -25.57593661 -24.72286639 -20.79271235 0 0 Z " fill="#B34B4D" transform="translate(167.9375,32.4375)"/>
<path d="M0 0 C6.76073845 -0.0836 13.20876578 -0.00589365 19.79931641 1.62670898 C20.91149536 1.89016113 20.91149536 1.89016113 22.04614258 2.15893555 C48.72618132 8.91050303 71.82679403 26.38810703 85.98681641 49.81420898 C87.61337047 52.55167991 89.21974069 55.29937432 90.79931641 58.06420898 C91.30978516 57.14381836 91.82025391 56.22342773 92.34619141 55.27514648 C106.78348996 29.87794932 128.39298744 11.15035369 156.79931641 3.06420898 C167.73121709 0.11147656 177.9890496 -0.4102159 189.23681641 -0.40454102 C190.97363525 -0.41166081 192.71045179 -0.41936239 194.44726562 -0.4276123 C198.05768417 -0.44095053 201.66788426 -0.44267073 205.27832031 -0.43676758 C209.89627144 -0.43083151 214.5131857 -0.46167222 219.13093567 -0.50188446 C222.70495213 -0.52774423 226.2787166 -0.53064141 229.85281372 -0.5269928 C231.55602663 -0.52868059 233.25925159 -0.53829023 234.96237183 -0.55613708 C237.33842035 -0.57833232 239.7123363 -0.56863032 242.08837891 -0.55102539 C242.78352097 -0.56428864 243.47866302 -0.57755188 244.19487 -0.59121704 C249.74533168 -0.49590405 252.04300189 1.26836373 255.79931641 5.06420898 C256.77742486 7.84077493 256.48352502 10.21813115 255.79931641 13.06420898 C253.6748337 16.50733612 252.65078999 17.78038446 248.79931641 19.06420898 C246.49806187 19.15244414 244.19429822 19.17896267 241.89135742 19.17431641 C240.44006855 19.1748594 238.98877969 19.17544644 237.53749084 19.17607117 C236.76735216 19.174643 235.99721348 19.17321484 235.20373726 19.17174339 C231.08644351 19.16820043 226.96928225 19.19409343 222.85205078 19.21459961 C217.63017587 19.23874608 212.40869002 19.25483457 207.18676758 19.23925781 C177.65976066 19.16564113 151.76301505 21.32152437 128.79931641 42.06420898 C128.04263672 42.72807617 127.28595703 43.39194336 126.50634766 44.07592773 C111.32544191 58.21167645 102.43895994 78.99083903 101.5259285 99.62524605 C101.39145978 104.79111084 101.41920215 109.95598117 101.44628906 115.12304688 C101.4454564 117.09579571 101.44323449 119.06854436 101.43974304 121.04129028 C101.43482772 125.25796033 101.43882082 129.47449042 101.44975662 133.69114876 C101.46621943 140.36043584 101.45760638 147.02955042 101.44491577 153.69883728 C101.41490114 171.45200543 101.41630609 189.20514036 101.43516862 206.95832103 C101.4474953 218.65032371 101.44567121 230.34212919 101.41678083 242.03410906 C101.40154845 248.66357429 101.40902409 255.2925034 101.43349099 261.9219352 C101.4435521 266.03913989 101.43288305 270.15609766 101.41637611 274.27327347 C101.41292171 276.18165064 101.41803327 278.09006546 101.43234444 279.99839211 C101.45067578 282.60386145 101.43830219 285.20746449 101.41836548 287.81288147 C101.4310851 288.56725323 101.44380471 289.321625 101.45690978 290.09885651 C101.39295356 293.97787421 100.82568181 296.51213449 98.44812584 299.51741695 C95.39847247 302.44961464 93.99334252 303.06420898 89.79931641 303.06420898 C86.34512024 302.10024726 84.04799289 300.87505459 81.79931641 298.06420898 C80.57756815 294.39896421 80.65591587 291.02779901 80.6612854 287.21160889 C80.65846412 286.40291863 80.65564284 285.59422837 80.65273607 284.76103234 C80.64437951 282.04144358 80.64305086 279.32189548 80.64160156 276.60229492 C80.6369338 274.65577072 80.6317903 272.70924761 80.62620544 270.76272583 C80.61491499 266.56392265 80.60648508 262.36512661 80.60008621 258.16631317 C80.58940399 251.51654929 80.56915548 244.86683626 80.54696655 238.21710205 C80.48505966 219.30483345 80.43112795 200.392567 80.39794922 181.48022461 C80.37955324 171.04013969 80.35054972 160.60013922 80.30994451 150.16011643 C80.2889474 144.63927246 80.27342772 139.11853461 80.27113724 133.59764862 C80.26897595 128.39374742 80.25295682 123.19006666 80.22674751 117.98623276 C80.21960748 116.08650049 80.21742751 114.18674135 80.22084999 112.28699875 C80.26100603 85.73606445 73.86782205 63.45645836 54.79931641 44.06420898 C54.11224609 43.36424805 53.42517578 42.66428711 52.71728516 41.94311523 C36.12013625 26.14657092 12.87095318 19.56633157 -9.57125854 19.7146492 C-11.88429 19.72862561 -14.19648649 19.72181701 -16.50952148 19.70980835 C-23.07411795 19.67915007 -29.63850153 19.68383111 -36.203125 19.70385742 C-40.24485226 19.7147764 -44.2859377 19.7016014 -48.32757568 19.67396164 C-49.85853681 19.66853501 -51.38956273 19.67254948 -52.92047119 19.68635941 C-55.05495677 19.70542464 -57.1873279 19.69400896 -59.32177734 19.67602539 C-60.532771 19.67841217 -61.74376465 19.68079895 -62.99145508 19.68325806 C-67.10661987 18.88945701 -68.59058953 17.26650831 -71.20068359 14.06420898 C-71.86474609 12.00170898 -71.86474609 12.00170898 -71.82568359 10.06420898 C-71.83857422 9.42483398 -71.85146484 8.78545898 -71.86474609 8.12670898 C-70.78865783 4.78450544 -69.2085494 2.77965352 -66.20068359 1.06420898 C-61.7879421 0.28418547 -57.40304763 0.34320144 -52.93115234 0.35717773 C-51.62221512 0.34205643 -50.31327789 0.32693512 -48.9646759 0.31135559 C-45.4805757 0.2715007 -41.99699645 0.26132227 -38.51269531 0.25732422 C-35.02375708 0.24810271 -31.53514372 0.21060948 -28.04638672 0.17553711 C-21.53072868 0.11404648 -15.01540488 0.08916833 -8.49945068 0.0763855 C-5.66580682 0.06592586 -2.83335674 0.03933141 0 0 Z " fill="#DC352E" transform="translate(166.20068359375,195.935791015625)"/>
<path d="M0 0 C2.3181362 1.89111111 3.66914015 3.33828031 5 6 C7.86095478 34.89095323 -8.43983432 65.31161806 -26.125 86.9375 C-37.5710164 99.69437302 -52.66599344 109.43911789 -70 111 C-74.28386695 110.93090537 -76.18861427 110.61372484 -79.59765625 108.03515625 C-82.83001113 103.95135179 -83.05564282 100.57284309 -83.5625 95.5 C-86.34884131 73.50894014 -95.20190176 54.94505429 -112.98046875 41.0703125 C-123.23643453 34.03840841 -134.3944737 29.29151676 -146.875 28.625 C-150.4941266 28.38717168 -152.53286987 28.10702742 -155.125 25.5 C-155.74375 24.675 -156.3625 23.85 -157 23 C-157.33 22.67 -157.66 22.34 -158 22 C-157.64798599 14.84238179 -157.64798599 14.84238179 -155.125 11.5625 C-150.25702246 7.98310475 -144.770534 8.43717886 -139 9 C-115.34375707 13.41440377 -95.23742621 26.16110255 -81.078125 45.64453125 C-74.19071721 56.05183107 -68.88118949 66.84624996 -66 79 C-65.608125 80.134375 -65.21625 81.26875 -64.8125 82.4375 C-64 85 -64 85 -64 89 C-55.85413972 85.05096127 -49.39747585 80.39747585 -43 74 C-42.37351562 73.37351562 -41.74703125 72.74703125 -41.1015625 72.1015625 C-25.48854655 55.35819246 -16.79987381 31.73148252 -15.26171875 9.171875 C-14.7476553 4.9059156 -12.95423508 2.7951959 -9.75 0.125 C-6.03630199 -1.39424009 -3.84345052 -1.04821378 0 0 Z " fill="#7482BD" transform="translate(243,83)"/>
<path d="M0 0 C2.86942113 2.26533247 3.83907612 3.51722837 5 7 C5.20916354 8.84726612 5.41499469 10.69504858 5.59472656 12.54541016 C8.19758888 38.89501406 18.19760626 64.25055012 38.26953125 82.0078125 C41.97360683 84.93991057 45.35372685 86.83843171 50 88 C50.14695312 87.37996094 50.29390625 86.75992188 50.4453125 86.12109375 C54.76838951 69.05239314 62.20621807 53.9020505 73 40 C73.51949219 39.31292969 74.03898437 38.62585938 74.57421875 37.91796875 C87.4148244 22.03701819 107.88681412 10.83355563 128.171875 8.66015625 C133.49093332 8.48045833 137.49762556 8.88297154 142 12 C144.50031654 15.75047482 144.53603554 17.55856266 144 22 C141.5625 24.875 141.5625 24.875 139 27 C138.67 27.33 138.34 27.66 138 28 C136.29313365 28.10933663 134.58417396 28.18619084 132.875 28.25 C115.44222973 29.61808899 100.74207734 38.32331448 89 51 C77.34602409 65.39883299 70.08090208 82.10806247 69.44140625 100.6328125 C68.85619194 105.09701366 67.30588026 108.29009049 64.5859375 111.8515625 C62.50501829 113.35843503 61.17779545 113.40113784 58.625 113.375 C57.87476563 113.38273437 57.12453125 113.39046875 56.3515625 113.3984375 C53.3922802 112.89703086 51.55109673 111.56786153 49 110 C46.8045398 109.23294415 44.59465044 108.50645392 42.375 107.8125 C20.84350564 100.2316197 6.7309443 80.36081261 -2.8125 60.5625 C-10.36370937 44.29246919 -17.26472701 24.20605224 -15 6 C-13.79867685 2.88096834 -13.16747823 2.11295043 -10.3125 0.1875 C-6.29637569 -1.25224268 -4.09437913 -1.13732753 0 0 Z " fill="#7382BD" transform="translate(281,83)"/>
<path d="M0 0 C0.74958984 0.00451172 1.49917969 0.00902344 2.27148438 0.01367188 C4.11852383 0.02543646 5.96552213 0.04337135 7.8125 0.0625 C7.87195801 0.6201001 7.93141602 1.1777002 7.99267578 1.75219727 C10.47437316 23.99835196 17.2245951 44.3645261 34.70703125 59.58203125 C47.17206653 69.23083263 59.26191768 73.67195865 74.8671875 75.33984375 C78.43572224 76.21541262 80.25474471 77.4398741 82.8125 80.0625 C84.14352792 84.43923297 83.28993415 88.16272025 81.1875 92.125 C74.09701526 96.19546346 64.27769973 94.70820076 56.5 92.87890625 C41.30055378 88.26163261 29.32352939 81.06734406 17.8125 70.0625 C16.68714844 69.06669922 16.68714844 69.06669922 15.5390625 68.05078125 C6.36718549 59.6029998 -1.87759102 47.19059934 -5.1875 35.0625 C-5.1875 34.0725 -5.1875 33.0825 -5.1875 32.0625 C-5.8475 32.0625 -6.5075 32.0625 -7.1875 32.0625 C-9.94764558 21.49062164 -11.34911531 11.99846962 -11.1875 1.0625 C-7.42449626 -0.19183458 -3.91539091 -0.04445422 0 0 Z " fill="#F6B362" transform="translate(348.1875,214.9375)"/>
<path d="M0 0 C2.41674224 -0.02705308 4.8331794 -0.04686438 7.25 -0.0625 C7.93191406 -0.07087891 8.61382812 -0.07925781 9.31640625 -0.08789062 C12.69342554 -0.10428392 15.77291639 -0.05628768 19 1 C20.31653252 24.45378305 10.09280978 49.01592958 -4.9765625 66.765625 C-18.13523412 81.29605004 -34.10422961 92.80475529 -54.27734375 94.421875 C-64.87933108 94.87528881 -64.87933108 94.87528881 -68.92578125 91.71484375 C-71.45545648 88.40387523 -71.74592121 86.93840366 -71.49609375 82.93359375 C-70.64533717 79.61765277 -68.63942246 78.02560328 -66 76 C-62.6400808 74.88002693 -59.58653684 74.61367769 -56.0625 74.25 C-41.27393787 72.4272901 -28.56496217 65.19005746 -18.97265625 53.7265625 C-7.06785551 37.27200623 -2.48235805 19.87904621 0 0 Z " fill="#F6B362" transform="translate(156,215)"/>
<path d="M0 0 C2.3181362 1.89111111 3.66914015 3.33828031 5 6 C7.86095478 34.89095323 -8.43983432 65.31161806 -26.125 86.9375 C-36.76640508 98.79761348 -50.94834217 109.00957336 -67.234375 109.95703125 C-68.10835937 109.97830078 -68.10835937 109.97830078 -69 110 C-68.505 109.01 -68.505 109.01 -68 108 C-67.34 108 -66.68 108 -66 108 C-64.97377631 104.92132893 -65.04434142 102.55679374 -65.11743164 99.35180664 C-65.13023495 95.69047229 -64.82709416 92.59510263 -64 89 C-61.50124796 86.60517435 -59.24617413 85.6370655 -56.05078125 84.33984375 C-50.78481721 82.02713483 -47.02482861 78.02482861 -43 74 C-42.37351563 73.37351562 -41.74703125 72.74703125 -41.1015625 72.1015625 C-25.48854655 55.35819246 -16.79987381 31.73148252 -15.26171875 9.171875 C-14.7476553 4.9059156 -12.95423508 2.7951959 -9.75 0.125 C-6.03630199 -1.39424009 -3.84345052 -1.04821378 0 0 Z " fill="#DC352E" transform="translate(243,83)"/>
<path d="M0 0 C2.86942113 2.26533247 3.83907612 3.51722837 5 7 C5.20916354 8.84726612 5.41499469 10.69504858 5.59472656 12.54541016 C8.18064569 38.72349278 18.10993232 64.45011329 38.26953125 81.97265625 C41.97346704 84.855069 45.77375432 86.94350528 50 89 C50.02505615 89.56509277 50.0501123 90.13018555 50.07592773 90.71240234 C50.19179956 93.26683742 50.31456537 95.8208955 50.4375 98.375 C50.47681641 99.26445312 50.51613281 100.15390625 50.55664062 101.0703125 C50.59853516 101.92109375 50.64042969 102.771875 50.68359375 103.6484375 C50.72025146 104.43395996 50.75690918 105.21948242 50.79467773 106.02880859 C50.890891 108.07523496 50.890891 108.07523496 52 110 C37.73169839 108.16911174 27.81697824 100.9877386 18 91 C17.18402344 90.18273437 16.36804688 89.36546875 15.52734375 88.5234375 C-3.91121252 68.05127018 -15.41984129 36.55582552 -15.30078125 8.41796875 C-14.97758758 5.81982741 -14.41066358 4.19756435 -13 2 C-8.40863827 -1.09649977 -5.32454277 -1.47903966 0 0 Z " fill="#DC352E" transform="translate(281,83)"/>
</svg>
